<svg width="24" height="22" viewBox="0 0 24 22" fill="none" xmlns="http://www.w3.org/2000/svg">
<path d="M11.9848 17.9296C12.1424 17.836 12.3385 17.8362 12.4959 17.93L18.1123 21.2767L18.1124 21.2767C18.7774 21.6733 19.5512 21.0801 19.3862 20.3811L17.8976 14.088C17.8544 13.9055 17.9169 13.7143 18.0595 13.5926L23.0262 9.35258L23.0264 9.35243C23.5862 8.87495 23.2972 7.95731 22.5404 7.898L22.5378 7.89779L16.0012 7.35112C15.8171 7.33572 15.6565 7.2201 15.5835 7.05042L13.0257 1.10375L13.0251 1.10217C12.7376 0.427532 11.7423 0.427532 11.4549 1.10217L11.4541 1.10413L8.89628 7.03746C8.82321 7.20695 8.66272 7.3224 8.4788 7.33779L1.9422 7.88445L1.93959 7.88467L1.93959 7.88466C1.18279 7.94397 0.893736 8.86161 1.45358 9.3391L1.45376 9.33925L6.42049 13.5792C6.56307 13.701 6.62558 13.8922 6.58243 14.0746L5.09382 20.3677L11.9848 17.9296ZM11.9848 17.9296L6.36847 21.2629L6.36757 21.2634M11.9848 17.9296L6.36757 21.2634M6.36757 21.2634C5.70266 21.6599 4.92898 21.0669 5.09376 20.368L6.36757 21.2634Z" fill="#FFBA79" stroke="#FFBA79" stroke-linejoin="round"/>
</svg>
